<svg width="26" height="25" viewBox="0 0 26 25" fill="none" xmlns="http://www.w3.org/2000/svg">
<path d="M24.8465 0.0806885H1.51669C0.955633 0.0806885 0.50235 0.514704 0.50235 1.05191V23.39C0.50235 23.9272 0.955633 24.3613 1.51669 24.3613H24.8465C25.4076 24.3613 25.8608 23.9272 25.8608 23.39V1.05191C25.8608 0.514704 25.4076 0.0806885 24.8465 0.0806885ZM23.8322 22.4188H17.9965V14.9586H21.2931L21.7876 11.2953H17.9965V8.95524C17.9965 7.89296 18.304 7.17062 19.8921 7.17062H21.9176V3.89274C21.5657 3.84721 20.3644 3.74706 18.9633 3.74706C16.0408 3.74706 14.0406 5.4558 14.0406 8.59103V11.2922H10.7377V14.9556H14.0438V22.4188H2.53103V2.02313H23.8322V22.4188Z" fill="#FFFBFB"/>
</svg>
