<svg width="26" height="26" viewBox="0 0 26 26" fill="none" xmlns="http://www.w3.org/2000/svg">
<path d="M12.9589 6.82484C9.35876 6.82484 6.4533 9.60685 6.4533 13.054C6.4533 16.5011 9.35876 19.2831 12.9589 19.2831C16.559 19.2831 19.4644 16.5011 19.4644 13.054C19.4644 9.60685 16.559 6.82484 12.9589 6.82484ZM12.9589 17.1025C10.6307 17.1025 8.73072 15.2832 8.73072 13.054C8.73072 10.8247 10.6307 9.0055 12.9589 9.0055C15.287 9.0055 17.187 10.8247 17.187 13.054C17.187 15.2832 15.287 17.1025 12.9589 17.1025ZM19.7309 5.11798C18.8903 5.11798 18.2115 5.76792 18.2115 6.57276C18.2115 7.3776 18.8903 8.02754 19.7309 8.02754C20.5714 8.02754 21.2502 7.38064 21.2502 6.57276C21.2504 6.38165 21.2113 6.19237 21.135 6.01576C21.0588 5.83915 20.9469 5.67868 20.8057 5.54354C20.6646 5.4084 20.497 5.30125 20.3126 5.22823C20.1281 5.1552 19.9304 5.11774 19.7309 5.11798ZM25.6401 13.054C25.6401 11.3775 25.656 9.71618 25.5576 8.04273C25.4593 6.09897 24.9962 4.37388 23.5118 2.95251C22.0241 1.5281 20.2257 1.08772 18.1957 0.993565C16.4448 0.899414 14.7097 0.9146 12.962 0.9146C11.2111 0.9146 9.47612 0.899414 7.7284 0.993565C5.69839 1.08772 3.89675 1.53114 2.41231 2.95251C0.924686 4.37692 0.464761 6.09897 0.366433 8.04273C0.268104 9.71922 0.283963 11.3805 0.283963 13.054C0.283963 14.7274 0.268104 16.3918 0.366433 18.0652C0.464761 20.009 0.927858 21.7341 2.41231 23.1555C3.89992 24.5799 5.69839 25.0203 7.7284 25.1144C9.47929 25.2086 11.2143 25.1934 12.962 25.1934C14.7129 25.1934 16.4479 25.2086 18.1957 25.1144C20.2257 25.0203 22.0273 24.5768 23.5118 23.1555C24.9994 21.731 25.4593 20.009 25.5576 18.0652C25.6591 16.3918 25.6401 14.7305 25.6401 13.054ZM22.8488 20.2155C22.6173 20.7683 22.3382 21.1813 21.8909 21.6065C21.4437 22.0348 21.0155 22.302 20.4382 22.5237C18.7698 23.1585 14.8081 23.0158 12.9589 23.0158C11.1096 23.0158 7.14477 23.1585 5.47636 22.5268C4.89907 22.3051 4.46769 22.0378 4.02363 21.6096C3.57639 21.1813 3.29726 20.7713 3.06572 20.2186C2.40596 18.618 2.55504 14.8246 2.55504 13.054C2.55504 11.2833 2.40596 7.48694 3.06572 5.88941C3.29726 5.33665 3.57639 4.9236 4.02363 4.49841C4.47087 4.07321 4.89907 3.8029 5.47636 3.58119C7.14477 2.94947 11.1096 3.09222 12.9589 3.09222C14.8081 3.09222 18.7729 2.94947 20.4414 3.58119C21.0186 3.8029 21.45 4.07017 21.8941 4.49841C22.3413 4.92664 22.6205 5.33665 22.852 5.88941C23.5118 7.48694 23.3627 11.2833 23.3627 13.054C23.3627 14.8246 23.5118 18.618 22.8488 20.2155Z" fill="#FFFBFB"/>
</svg>
