<svg width="66" height="23" viewBox="0 0 66 23" fill="none" xmlns="http://www.w3.org/2000/svg">
<ellipse rx="11.5" ry="10" transform="matrix(1 0 0 -1 11.5 13)" fill="#343AC4"/>
<path d="M9.33984 4.72852V7.43359H11.5273V8.39062H9.33984V15.4316C9.33984 16.0176 9.44401 16.4538 9.65234 16.7402C9.86719 17.0267 10.222 17.1699 10.7168 17.1699C10.9121 17.1699 11.2279 17.1374 11.6641 17.0723L11.7129 18.0293C11.4069 18.14 10.9902 18.1953 10.4629 18.1953C9.66211 18.1953 9.07943 17.9642 8.71484 17.502C8.35026 17.0332 8.16797 16.3464 8.16797 15.4414V8.39062H6.22461V7.43359H8.16797V4.72852H9.33984ZM13.1094 12.5605C13.1094 11.5449 13.3047 10.6302 13.6953 9.81641C14.0924 9.0026 14.6491 8.37109 15.3652 7.92188C16.0879 7.46615 16.9049 7.23828 17.8164 7.23828C19.2227 7.23828 20.362 7.73307 21.2344 8.72266C22.1068 9.70573 22.543 11.0111 22.543 12.6387V12.8828C22.543 13.9049 22.3444 14.8262 21.9473 15.6465C21.5566 16.4603 21.0033 17.0885 20.2871 17.5312C19.571 17.974 18.7539 18.1953 17.8359 18.1953C16.4362 18.1953 15.2969 17.7038 14.418 16.7207C13.5456 15.7311 13.1094 14.4225 13.1094 12.7949V12.5605ZM14.2812 12.8828C14.2812 14.1458 14.6068 15.1842 15.2578 15.998C15.9154 16.8053 16.7747 17.209 17.8359 17.209C18.8906 17.209 19.7435 16.8053 20.3945 15.998C21.0521 15.1842 21.3809 14.1133 21.3809 12.7852V12.5605C21.3809 11.7533 21.2311 11.0143 20.9316 10.3438C20.6322 9.67318 20.2122 9.1556 19.6719 8.79102C19.1315 8.41992 18.513 8.23438 17.8164 8.23438C16.7747 8.23438 15.9251 8.64453 15.2676 9.46484C14.61 10.2786 14.2812 11.3464 14.2812 12.668V12.8828ZM28.8711 17.209C29.6849 17.209 30.3652 16.9811 30.9121 16.5254C31.4655 16.0632 31.765 15.4674 31.8105 14.7383H32.9336C32.901 15.3828 32.6992 15.972 32.3281 16.5059C31.957 17.0332 31.4622 17.4466 30.8438 17.7461C30.2318 18.0456 29.5742 18.1953 28.8711 18.1953C27.4844 18.1953 26.3841 17.7135 25.5703 16.75C24.763 15.7865 24.3594 14.4909 24.3594 12.8633V12.5117C24.3594 11.4701 24.5417 10.5488 24.9062 9.74805C25.2708 8.94727 25.7917 8.32878 26.4688 7.89258C27.1523 7.45638 27.9499 7.23828 28.8613 7.23828C30.0202 7.23828 30.974 7.58333 31.7227 8.27344C32.4779 8.96354 32.8815 9.87174 32.9336 10.998H31.8105C31.7585 10.1712 31.459 9.50391 30.9121 8.99609C30.3717 8.48828 29.6882 8.23438 28.8613 8.23438C27.8066 8.23438 26.9863 8.61523 26.4004 9.37695C25.821 10.1387 25.5312 11.2064 25.5312 12.5801V12.9219C25.5312 14.2695 25.821 15.321 26.4004 16.0762C26.9863 16.8314 27.8099 17.209 28.8711 17.209ZM36.4395 9.2207C36.8236 8.58919 37.3151 8.10091 37.9141 7.75586C38.513 7.41081 39.1673 7.23828 39.877 7.23828C41.0098 7.23828 41.8529 7.55729 42.4062 8.19531C42.9596 8.83333 43.2396 9.79036 43.2461 11.0664V18H42.084V11.0566C42.0775 10.1126 41.8757 9.40951 41.4785 8.94727C41.0879 8.48503 40.4596 8.25391 39.5938 8.25391C38.8711 8.25391 38.2298 8.48177 37.6699 8.9375C37.1165 9.38672 36.7064 9.99544 36.4395 10.7637V18H35.2773V3H36.4395V9.2207ZM48.7637 12.6777L47.4258 13.9668V18H46.2539V3H47.4258V12.5996L48.5293 11.4082L52.5723 7.43359H54.0469L49.5645 11.8867L54.4375 18H53.041L48.7637 12.6777ZM62.7285 18C62.6113 17.668 62.5365 17.1764 62.5039 16.5254C62.0938 17.0592 61.5697 17.4727 60.9316 17.7656C60.3001 18.0521 59.6296 18.1953 58.9199 18.1953C57.9043 18.1953 57.0807 17.9121 56.4492 17.3457C55.8242 16.7793 55.5117 16.0632 55.5117 15.1973C55.5117 14.1686 55.9382 13.3548 56.791 12.7559C57.6504 12.1569 58.8451 11.8574 60.375 11.8574H62.4941V10.6562C62.4941 9.90104 62.2598 9.30859 61.791 8.87891C61.3288 8.44271 60.6517 8.22461 59.7598 8.22461C58.946 8.22461 58.2721 8.43294 57.7383 8.84961C57.2044 9.26628 56.9375 9.76758 56.9375 10.3535L55.7656 10.3438C55.7656 9.50391 56.1562 8.77799 56.9375 8.16602C57.7188 7.54753 58.679 7.23828 59.8184 7.23828C60.9967 7.23828 61.9245 7.53451 62.6016 8.12695C63.2852 8.71289 63.6367 9.5332 63.6562 10.5879V15.5879C63.6562 16.61 63.7637 17.375 63.9785 17.8828V18H62.7285ZM59.0566 17.1602C59.8379 17.1602 60.5345 16.9714 61.1465 16.5938C61.765 16.2161 62.2142 15.7116 62.4941 15.0801V12.7559H60.4043C59.2389 12.7689 58.3275 12.9837 57.6699 13.4004C57.0124 13.8105 56.6836 14.377 56.6836 15.0996C56.6836 15.6921 56.9017 16.1836 57.3379 16.5742C57.7806 16.9648 58.3535 17.1602 59.0566 17.1602Z" fill="#E5E5E5"/>
</svg>
