<svg width="158" height="56" viewBox="0 0 158 56" fill="none" xmlns="http://www.w3.org/2000/svg">
<ellipse rx="27.5" ry="22" transform="matrix(1 0 0 -1 27.5 30)" fill="#343AC4"/>
<path d="M23.0156 12.1484V18.6406H28.2656V20.9375H23.0156V37.8359C23.0156 39.2422 23.2656 40.2891 23.7656 40.9766C24.2812 41.6641 25.1328 42.0078 26.3203 42.0078C26.7891 42.0078 27.5469 41.9297 28.5938 41.7734L28.7109 44.0703C27.9766 44.3359 26.9766 44.4688 25.7109 44.4688C23.7891 44.4688 22.3906 43.9141 21.5156 42.8047C20.6406 41.6797 20.2031 40.0312 20.2031 37.8594V20.9375H15.5391V18.6406H20.2031V12.1484H23.0156ZM32.0625 30.9453C32.0625 28.5078 32.5312 26.3125 33.4688 24.3594C34.4219 22.4062 35.7578 20.8906 37.4766 19.8125C39.2109 18.7188 41.1719 18.1719 43.3594 18.1719C46.7344 18.1719 49.4688 19.3594 51.5625 21.7344C53.6562 24.0938 54.7031 27.2266 54.7031 31.1328V31.7188C54.7031 34.1719 54.2266 36.3828 53.2734 38.3516C52.3359 40.3047 51.0078 41.8125 49.2891 42.875C47.5703 43.9375 45.6094 44.4688 43.4062 44.4688C40.0469 44.4688 37.3125 43.2891 35.2031 40.9297C33.1094 38.5547 32.0625 35.4141 32.0625 31.5078V30.9453ZM34.875 31.7188C34.875 34.75 35.6562 37.2422 37.2188 39.1953C38.7969 41.1328 40.8594 42.1016 43.4062 42.1016C45.9375 42.1016 47.9844 41.1328 49.5469 39.1953C51.125 37.2422 51.9141 34.6719 51.9141 31.4844V30.9453C51.9141 29.0078 51.5547 27.2344 50.8359 25.625C50.1172 24.0156 49.1094 22.7734 47.8125 21.8984C46.5156 21.0078 45.0312 20.5625 43.3594 20.5625C40.8594 20.5625 38.8203 21.5469 37.2422 23.5156C35.6641 25.4688 34.875 28.0312 34.875 31.2031V31.7188ZM69.8906 42.1016C71.8438 42.1016 73.4766 41.5547 74.7891 40.4609C76.1172 39.3516 76.8359 37.9219 76.9453 36.1719H79.6406C79.5625 37.7188 79.0781 39.1328 78.1875 40.4141C77.2969 41.6797 76.1094 42.6719 74.625 43.3906C73.1562 44.1094 71.5781 44.4688 69.8906 44.4688C66.5625 44.4688 63.9219 43.3125 61.9688 41C60.0312 38.6875 59.0625 35.5781 59.0625 31.6719V30.8281C59.0625 28.3281 59.5 26.1172 60.375 24.1953C61.25 22.2734 62.5 20.7891 64.125 19.7422C65.7656 18.6953 67.6797 18.1719 69.8672 18.1719C72.6484 18.1719 74.9375 19 76.7344 20.6562C78.5469 22.3125 79.5156 24.4922 79.6406 27.1953H76.9453C76.8203 25.2109 76.1016 23.6094 74.7891 22.3906C73.4922 21.1719 71.8516 20.5625 69.8672 20.5625C67.3359 20.5625 65.3672 21.4766 63.9609 23.3047C62.5703 25.1328 61.875 27.6953 61.875 30.9922V31.8125C61.875 35.0469 62.5703 37.5703 63.9609 39.3828C65.3672 41.1953 67.3438 42.1016 69.8906 42.1016ZM88.0547 22.9297C88.9766 21.4141 90.1562 20.2422 91.5938 19.4141C93.0312 18.5859 94.6016 18.1719 96.3047 18.1719C99.0234 18.1719 101.047 18.9375 102.375 20.4688C103.703 22 104.375 24.2969 104.391 27.3594V44H101.602V27.3359C101.586 25.0703 101.102 23.3828 100.148 22.2734C99.2109 21.1641 97.7031 20.6094 95.625 20.6094C93.8906 20.6094 92.3516 21.1562 91.0078 22.25C89.6797 23.3281 88.6953 24.7891 88.0547 26.6328V44H85.2656V8H88.0547V22.9297ZM117.633 31.2266L114.422 34.3203V44H111.609V8H114.422V31.0391L117.07 28.1797L126.773 18.6406H130.312L119.555 29.3281L131.25 44H127.898L117.633 31.2266ZM151.148 44C150.867 43.2031 150.688 42.0234 150.609 40.4609C149.625 41.7422 148.367 42.7344 146.836 43.4375C145.32 44.125 143.711 44.4688 142.008 44.4688C139.57 44.4688 137.594 43.7891 136.078 42.4297C134.578 41.0703 133.828 39.3516 133.828 37.2734C133.828 34.8047 134.852 32.8516 136.898 31.4141C138.961 29.9766 141.828 29.2578 145.5 29.2578H150.586V26.375C150.586 24.5625 150.023 23.1406 148.898 22.1094C147.789 21.0625 146.164 20.5391 144.023 20.5391C142.07 20.5391 140.453 21.0391 139.172 22.0391C137.891 23.0391 137.25 24.2422 137.25 25.6484L134.438 25.625C134.438 23.6094 135.375 21.8672 137.25 20.3984C139.125 18.9141 141.43 18.1719 144.164 18.1719C146.992 18.1719 149.219 18.8828 150.844 20.3047C152.484 21.7109 153.328 23.6797 153.375 26.2109V38.2109C153.375 40.6641 153.633 42.5 154.148 43.7188V44H151.148ZM142.336 41.9844C144.211 41.9844 145.883 41.5312 147.352 40.625C148.836 39.7188 149.914 38.5078 150.586 36.9922V31.4141H145.57C142.773 31.4453 140.586 31.9609 139.008 32.9609C137.43 33.9453 136.641 35.3047 136.641 37.0391C136.641 38.4609 137.164 39.6406 138.211 40.5781C139.273 41.5156 140.648 41.9844 142.336 41.9844Z" fill="#E5E5E5"/>
</svg>
